<mxfile host="app.diagrams.net" modified="2023-10-19T13:06:40.671Z" agent="Mozilla/5.0 (Windows NT 10.0; Win64; x64; rv:109.0) Gecko/20100101 Firefox/118.0" etag="goT5IE5opQ0r7FyzV0g_" version="22.0.5" type="device">
  <diagram name="Page-1" id="sAOJ5SrDfzlhlrvFXXsP">
    <mxGraphModel dx="1050" dy="530" grid="1" gridSize="10" guides="1" tooltips="1" connect="1" arrows="1" fold="1" page="1" pageScale="1" pageWidth="850" pageHeight="1100" math="0" shadow="0">
      <root>
        <mxCell id="0" />
        <mxCell id="1" parent="0" />
        <mxCell id="nBLHbdXHp7UiOyoCYOLu-5" value="" style="endArrow=classic;html=1;rounded=0;" edge="1" parent="1">
          <mxGeometry width="50" height="50" relative="1" as="geometry">
            <mxPoint x="360" y="200" as="sourcePoint" />
            <mxPoint x="560" y="200" as="targetPoint" />
          </mxGeometry>
        </mxCell>
        <mxCell id="nBLHbdXHp7UiOyoCYOLu-6" value="" style="group" vertex="1" connectable="0" parent="1">
          <mxGeometry x="10" y="165" width="310" height="110" as="geometry" />
        </mxCell>
        <mxCell id="nBLHbdXHp7UiOyoCYOLu-3" value="&lt;div&gt;Client-side&lt;/div&gt;&lt;div&gt;&lt;br&gt;&lt;/div&gt;&lt;div&gt;&lt;br&gt;&lt;/div&gt;&lt;div&gt;&lt;br&gt;&lt;/div&gt;&lt;div&gt;&lt;br&gt;&lt;/div&gt;&lt;div&gt;&lt;br&gt;&lt;/div&gt;&lt;div&gt;&lt;br&gt;&lt;/div&gt;" style="ellipse;whiteSpace=wrap;html=1;" vertex="1" parent="nBLHbdXHp7UiOyoCYOLu-6">
          <mxGeometry width="310" height="110" as="geometry" />
        </mxCell>
        <mxCell id="nBLHbdXHp7UiOyoCYOLu-2" value="Web Browser" style="rounded=1;whiteSpace=wrap;html=1;fillColor=#d5e8d4;strokeColor=#82b366;" vertex="1" parent="nBLHbdXHp7UiOyoCYOLu-6">
          <mxGeometry x="60" y="35" width="190" height="40" as="geometry" />
        </mxCell>
        <mxCell id="nBLHbdXHp7UiOyoCYOLu-7" value="" style="group" vertex="1" connectable="0" parent="1">
          <mxGeometry x="570" y="165" width="310" height="110" as="geometry" />
        </mxCell>
        <mxCell id="nBLHbdXHp7UiOyoCYOLu-8" value="" style="group" vertex="1" connectable="0" parent="nBLHbdXHp7UiOyoCYOLu-7">
          <mxGeometry width="310" height="110" as="geometry" />
        </mxCell>
        <mxCell id="nBLHbdXHp7UiOyoCYOLu-4" value="&lt;div&gt;Server-side&lt;/div&gt;&lt;div&gt;&lt;br&gt;&lt;/div&gt;&lt;div&gt;&lt;br&gt;&lt;/div&gt;&lt;div&gt;&lt;br&gt;&lt;/div&gt;&lt;div&gt;&lt;br&gt;&lt;/div&gt;&lt;div&gt;&lt;br&gt;&lt;/div&gt;" style="ellipse;whiteSpace=wrap;html=1;movable=1;resizable=1;rotatable=1;deletable=1;editable=1;locked=0;connectable=1;" vertex="1" parent="nBLHbdXHp7UiOyoCYOLu-8">
          <mxGeometry x="20" width="310" height="110" as="geometry" />
        </mxCell>
        <mxCell id="nBLHbdXHp7UiOyoCYOLu-1" value="Web Server" style="rounded=1;whiteSpace=wrap;html=1;movable=1;resizable=1;rotatable=1;deletable=1;editable=1;locked=0;connectable=1;fillColor=#d5e8d4;strokeColor=#82b366;" vertex="1" parent="nBLHbdXHp7UiOyoCYOLu-8">
          <mxGeometry x="80" y="35" width="190" height="40" as="geometry" />
        </mxCell>
        <mxCell id="nBLHbdXHp7UiOyoCYOLu-9" value="" style="endArrow=classic;html=1;rounded=0;" edge="1" parent="1">
          <mxGeometry width="50" height="50" relative="1" as="geometry">
            <mxPoint x="560" y="240" as="sourcePoint" />
            <mxPoint x="360" y="240" as="targetPoint" />
            <Array as="points">
              <mxPoint x="520" y="240" />
              <mxPoint x="520" y="290" />
              <mxPoint x="400" y="290" />
              <mxPoint x="400" y="240" />
            </Array>
          </mxGeometry>
        </mxCell>
        <mxCell id="nBLHbdXHp7UiOyoCYOLu-10" value="Webpage Request" style="text;html=1;strokeColor=none;fillColor=none;align=center;verticalAlign=middle;whiteSpace=wrap;rounded=0;" vertex="1" parent="1">
          <mxGeometry x="400" y="165" width="120" height="30" as="geometry" />
        </mxCell>
        <mxCell id="nBLHbdXHp7UiOyoCYOLu-11" value="Rendered Page" style="text;html=1;strokeColor=none;fillColor=none;align=center;verticalAlign=middle;whiteSpace=wrap;rounded=0;" vertex="1" parent="1">
          <mxGeometry x="410" y="250" width="100" height="30" as="geometry" />
        </mxCell>
        <mxCell id="nBLHbdXHp7UiOyoCYOLu-13" value="&lt;div&gt;Rendering Engine&lt;/div&gt;" style="rhombus;whiteSpace=wrap;html=1;fillColor=#f8cecc;strokeColor=#b85450;" vertex="1" parent="1">
          <mxGeometry x="315" y="380" width="290" height="100" as="geometry" />
        </mxCell>
        <mxCell id="nBLHbdXHp7UiOyoCYOLu-14" value="" style="endArrow=classic;html=1;rounded=0;exitX=0.5;exitY=0;exitDx=0;exitDy=0;entryX=0.5;entryY=1.333;entryDx=0;entryDy=0;entryPerimeter=0;" edge="1" parent="1" source="nBLHbdXHp7UiOyoCYOLu-13" target="nBLHbdXHp7UiOyoCYOLu-11">
          <mxGeometry width="50" height="50" relative="1" as="geometry">
            <mxPoint x="400" y="380" as="sourcePoint" />
            <mxPoint x="460" y="300" as="targetPoint" />
          </mxGeometry>
        </mxCell>
        <mxCell id="nBLHbdXHp7UiOyoCYOLu-15" value="&lt;div&gt;HTML5&lt;/div&gt;" style="rounded=1;whiteSpace=wrap;html=1;fillColor=#dae8fc;strokeColor=#6c8ebf;" vertex="1" parent="1">
          <mxGeometry x="140" y="410" width="90" height="40" as="geometry" />
        </mxCell>
        <mxCell id="nBLHbdXHp7UiOyoCYOLu-16" value="" style="endArrow=classic;html=1;rounded=0;exitX=1;exitY=0.5;exitDx=0;exitDy=0;entryX=0;entryY=0.5;entryDx=0;entryDy=0;" edge="1" parent="1" source="nBLHbdXHp7UiOyoCYOLu-15" target="nBLHbdXHp7UiOyoCYOLu-13">
          <mxGeometry width="50" height="50" relative="1" as="geometry">
            <mxPoint x="400" y="500" as="sourcePoint" />
            <mxPoint x="450" y="450" as="targetPoint" />
          </mxGeometry>
        </mxCell>
        <mxCell id="nBLHbdXHp7UiOyoCYOLu-17" value="CSS3" style="rounded=1;whiteSpace=wrap;html=1;fillColor=#dae8fc;strokeColor=#6c8ebf;" vertex="1" parent="1">
          <mxGeometry x="230" y="520" width="90" height="40" as="geometry" />
        </mxCell>
        <mxCell id="nBLHbdXHp7UiOyoCYOLu-18" value="" style="endArrow=classic;html=1;rounded=0;entryX=0;entryY=1;entryDx=0;entryDy=0;exitX=0.75;exitY=0;exitDx=0;exitDy=0;" edge="1" parent="1" source="nBLHbdXHp7UiOyoCYOLu-17" target="nBLHbdXHp7UiOyoCYOLu-13">
          <mxGeometry width="50" height="50" relative="1" as="geometry">
            <mxPoint x="280" y="510" as="sourcePoint" />
            <mxPoint x="365" y="490" as="targetPoint" />
          </mxGeometry>
        </mxCell>
        <mxCell id="nBLHbdXHp7UiOyoCYOLu-21" value="&lt;div&gt;Javascript&lt;/div&gt;" style="rounded=1;whiteSpace=wrap;html=1;fillColor=#dae8fc;strokeColor=#6c8ebf;" vertex="1" parent="1">
          <mxGeometry x="415" y="590" width="90" height="40" as="geometry" />
        </mxCell>
        <mxCell id="nBLHbdXHp7UiOyoCYOLu-22" value="" style="endArrow=classic;html=1;rounded=0;exitX=0.5;exitY=0;exitDx=0;exitDy=0;entryX=0.5;entryY=1;entryDx=0;entryDy=0;" edge="1" parent="1" source="nBLHbdXHp7UiOyoCYOLu-21" target="nBLHbdXHp7UiOyoCYOLu-13">
          <mxGeometry width="50" height="50" relative="1" as="geometry">
            <mxPoint x="400" y="500" as="sourcePoint" />
            <mxPoint x="410" y="490" as="targetPoint" />
          </mxGeometry>
        </mxCell>
        <mxCell id="nBLHbdXHp7UiOyoCYOLu-23" value="ReactJS" style="rounded=1;whiteSpace=wrap;html=1;fillColor=#dae8fc;strokeColor=#6c8ebf;" vertex="1" parent="1">
          <mxGeometry x="600" y="520" width="90" height="40" as="geometry" />
        </mxCell>
        <mxCell id="nBLHbdXHp7UiOyoCYOLu-25" value="" style="endArrow=classic;html=1;rounded=0;entryX=1;entryY=1;entryDx=0;entryDy=0;exitX=0.25;exitY=0;exitDx=0;exitDy=0;" edge="1" parent="1" source="nBLHbdXHp7UiOyoCYOLu-23" target="nBLHbdXHp7UiOyoCYOLu-13">
          <mxGeometry width="50" height="50" relative="1" as="geometry">
            <mxPoint x="308" y="530" as="sourcePoint" />
            <mxPoint x="398" y="465" as="targetPoint" />
          </mxGeometry>
        </mxCell>
        <mxCell id="nBLHbdXHp7UiOyoCYOLu-26" value="&lt;div&gt;Bootstrap&lt;/div&gt;" style="rounded=1;whiteSpace=wrap;html=1;fillColor=#dae8fc;strokeColor=#6c8ebf;" vertex="1" parent="1">
          <mxGeometry x="690" y="410" width="90" height="40" as="geometry" />
        </mxCell>
        <mxCell id="nBLHbdXHp7UiOyoCYOLu-27" value="" style="endArrow=classic;html=1;rounded=0;exitX=0;exitY=0.5;exitDx=0;exitDy=0;entryX=1;entryY=0.5;entryDx=0;entryDy=0;" edge="1" parent="1" source="nBLHbdXHp7UiOyoCYOLu-26" target="nBLHbdXHp7UiOyoCYOLu-13">
          <mxGeometry width="50" height="50" relative="1" as="geometry">
            <mxPoint x="240" y="440" as="sourcePoint" />
            <mxPoint x="325" y="440" as="targetPoint" />
          </mxGeometry>
        </mxCell>
      </root>
    </mxGraphModel>
  </diagram>
</mxfile>
